<svg id="Flat_Gradient" data-name="Flat Gradient" xmlns="http://www.w3.org/2000/svg" xmlns:xlink="http://www.w3.org/1999/xlink" viewBox="0 0 64 64"><defs><style>.cls-1{fill:url(#linear-gradient);}</style><linearGradient id="linear-gradient" x1="4" y1="32" x2="60" y2="32" gradientUnits="userSpaceOnUse"><stop offset="0" stop-color="#edbdf2" id="id_102"></stop><stop offset="1" stop-color="#9ed7f0" id="id_103"></stop></linearGradient></defs><title>1</title><path class="cls-1" d="M53.6,5.91H10.4A6.40594,6.40594,0,0,0,4,12.31V39.24H60V12.31A6.40594,6.40594,0,0,0,53.6,5.91ZM44.19,24.52c-.45112,3.72206-5.23625,5.55411-8.17,3.35991A6.65754,6.65754,0,0,1,25.33,22.57c-.074-5.9065,7.412-8.91124,11.43-4.65986a1.0027,1.0027,0,0,1,1.90991.40991V26.81c3.6557.30513,4.04287-3.51108,3.47992-6.27008A10.269,10.269,0,0,0,34.03,12.43c-7.03977-1.56267-13.73863,5.13567-12.17989,12.18015,1.15009,6.82664,9.455,10.4946,15.31992,6.91964A.99919.99919,0,1,1,38.17,33.26,12.29237,12.29237,0,0,1,29.71,34.71c-9.6686-1.64782-13.43012-14.07786-6.4398-20.86C31.66642,5.43456,46.07307,12.74315,44.19,24.52ZM32.0001,27.24c-6.17054-.18869-6.173-9.14391-.0001-9.34C38.17145,18.0952,38.17187,27.05042,32.0001,27.24ZM46.04,58.09H17.96007a1.00012,1.00012,0,0,1-.00005-2H46.04A1.00012,1.00012,0,0,1,46.04,58.09ZM4,43.17a6.40594,6.40594,0,0,0,6.4,6.4H53.6a6.40594,6.40594,0,0,0,6.4-6.4V41.24H4ZM32,44.4a1.0002,1.0002,0,0,1-.00006,2A1.0002,1.0002,0,0,1,32,44.4Zm7.21,7.17,1.52,2.52H23.27l1.52-2.52Z" id="id_101"></path></svg>